<svg xmlns="http://www.w3.org/2000/svg" xmlns:xlink="http://www.w3.org/1999/xlink" id="Capa_1" width="70" height="70" viewBox="0 0 510 510"><linearGradient id="lg1"><stop offset="0" stop-color="rgb(124 124 238)"></stop><stop offset="1" stop-color="rgb(210 210 249)"></stop></linearGradient><linearGradient id="SVGID_1_" x1="126.402" x2="395.506" y1="126.402" y2="395.506" gradientUnits="userSpaceOnUse" xlink:href="#lg1"></linearGradient><linearGradient id="SVGID_2_" x1="430.795" x2="65.132" y1="430.795" y2="65.132" gradientUnits="userSpaceOnUse" xlink:href="#lg1"></linearGradient><linearGradient id="lg2"><stop offset="0" stop-color="#4c8df1" stop-opacity="0"></stop><stop offset="0.563" stop-color="#466cc8" stop-opacity="0.563"></stop><stop offset="1" stop-color="#4256ac"></stop></linearGradient><linearGradient id="SVGID_3_" x1="277.483" x2="101.109" y1="331.872" y2="244.184" gradientUnits="userSpaceOnUse" xlink:href="#lg2"></linearGradient><linearGradient id="SVGID_4_" x1="418.698" x2="277.698" y1="400.245" y2="332.245" gradientUnits="userSpaceOnUse" xlink:href="#lg2"></linearGradient><linearGradient id="lg3"><stop offset="0" stop-color="#e3e5e4"></stop><stop offset="1" stop-color="#cbd0e4"></stop></linearGradient><linearGradient id="SVGID_5_" x1="250.536" x2="327.067" y1="408.464" y2="484.995" gradientUnits="userSpaceOnUse" xlink:href="#lg3"></linearGradient><linearGradient id="SVGID_6_" x1="292.254" x2="241.588" y1="436.058" y2="321.392" gradientUnits="userSpaceOnUse"><stop offset="0" stop-color="#cbd0e4" stop-opacity="0"></stop><stop offset="1" stop-color="#6a7d83"></stop></linearGradient><linearGradient id="SVGID_7_" x1="207.983" x2="375.569" y1="208.017" y2="375.603" gradientUnits="userSpaceOnUse" xlink:href="#lg3"></linearGradient><linearGradient id="SVGID_8_" x1="326.249" x2="136.247" y1="297.751" y2="107.748" gradientUnits="userSpaceOnUse" xlink:href="#lg3"></linearGradient><path fill="url(#SVGID_1_)" d="M445.539 255c0-7.504-.439-14.904-1.286-22.18-1.09-9.356 2.617-18.633 9.698-24.845l29.15-25.574c9.894-8.68 12.117-23.215 5.271-34.456L457.195 96.76c-6.846-11.241-20.782-15.934-33.033-11.125l-36.338 14.262c-8.795 3.452-18.68 2.243-26.515-3.036a190.21 190.21 0 00-26.614-14.976c-8.558-3.947-14.703-11.754-16.326-21.037l-6.717-38.422C309.385 9.46 298.128 0 284.966 0h-59.932c-13.162 0-24.419 9.46-26.685 22.425l-6.717 38.422c-1.623 9.283-7.768 17.091-16.326 21.037a190.21 190.21 0 00-26.614 14.976c-7.836 5.278-17.721 6.487-26.515 3.036L85.838 85.634c-12.252-4.808-26.187-.115-33.033 11.125l-31.176 51.185c-6.846 11.241-4.623 25.776 5.271 34.456l29.15 25.574c7.081 6.212 10.788 15.489 9.698 24.845a191.76 191.76 0 000 44.36c1.09 9.356-2.617 18.633-9.698 24.845L26.9 327.598c-9.894 8.68-12.117 23.215-5.271 34.456l31.176 51.185c6.846 11.241 20.782 15.934 33.033 11.125l36.338-14.262c8.795-3.452 18.68-2.242 26.515 3.036a190.21 190.21 0 0026.614 14.976c8.558 3.947 14.703 11.754 16.326 21.037l6.717 38.422C200.615 500.54 211.872 506 225.034 506h59.932c13.162 0 24.419-5.46 26.685-18.425l6.717-38.422c1.623-9.283 7.768-17.091 16.326-21.037a190.21 190.21 0 0026.614-14.976c7.836-5.278 17.721-6.487 26.515-3.036l36.338 14.262c12.252 4.809 26.187.115 33.033-11.125l31.176-51.185c6.846-11.241 4.623-25.776-5.271-34.456l-29.15-25.574c-7.081-6.212-10.788-15.489-9.698-24.845A191.11 191.11 0 00445.539 255z"></path><circle cx="255" cy="255" r="155.751" fill="url(#SVGID_2_)"></circle><path fill="url(#SVGID_3_)" d="M284.966 510c13.162 0 24.419-9.46 26.685-22.425l6.717-38.422c1.623-9.283 7.768-17.091 16.326-21.037a190.21 190.21 0 0026.614-14.976c7.836-5.278 17.721-6.487 26.515-3.036l36.338 14.262c12.252 4.809 26.187.115 33.033-11.125l31.176-51.185c6.846-11.241 4.623-25.776-5.271-34.456l-29.15-25.574c-7.081-6.212-10.788-15.489-9.698-24.845.508-4.362.85-8.774 1.058-13.221l-95.998-95.998a129.034 129.034 0 00-19.782-17.453c-5.799-4.143-13.861.054-13.861 7.181v84.713a28.832 28.832 0 01-10.645 22.357c-1.257-1.208-111.767-111.526-112.688-112.64-2.764-3.342-7.893-2.452-11.935.439-32.6 23.323-51.818 59.527-51.741 102.678.066 37.151 13.861 70.537 39.073 93.911l27.6 27.698 1 64.446c0 15.516-.657 31.002 2.015 46.286C200.615 500.54 211.872 510 225.034 510z"></path><path fill="url(#SVGID_4_)" d="M488.37 362.05l-31.17 51.19c-6.85 11.24-20.79 15.93-33.04 11.13l-36.34-14.27c-8.79-3.45-18.68-2.24-26.51 3.04a190.615 190.615 0 01-26.62 14.98c-8.55 3.94-14.7 11.75-16.32 21.03l-6.72 38.43c-2.27 12.96-13.52 19.42-26.68 19.42h-59.94c-6.58 0-12.68-2.36-17.42-6.35-2.42-2.03-4.48-1.48-6.07-4.25 3.99 2.3 8.61 3.6 13.49 3.6h59.94c13.16 0 24.41-9.46 26.68-22.42 1.33-7.64 2.34-15.34 3.01-23.06s1.01-15.48 1.01-23.23v-73.17c40.28-21.65 67.67-64.19 67.67-113.12 0-32.85-12.34-62.82-32.65-85.52 3.01 2.68 5.88 5.51 8.62 8.48l96 96c-.21 4.45-.55 8.86-1.06 13.22-1.09 9.36 2.62 18.63 9.7 24.85l29.15 25.57c9.89 8.68 12.12 23.21 5.27 34.45z"></path><path fill="url(#SVGID_5_)" d="M311.651 487.575a268.77 268.77 0 004.015-46.286V335.333H194.333v105.956a268.77 268.77 0 004.015 46.286C200.615 500.54 211.872 510 225.034 510h59.932c13.162 0 24.419-9.46 26.685-22.425z"></path><path fill="url(#SVGID_6_)" d="M194.333 368.158l117.613 117.613a268.731 268.731 0 003.72-44.482V335.333H194.333z"></path><path fill="url(#SVGID_7_)" d="M383.34 255c0 70.88-57.459 128.339-128.339 128.34S126.786 326.114 126.66 255.234c-.077-43.151 21.141-81.355 53.741-104.678 5.826-4.168 13.928-.028 13.928 7.135v84.71a28.84 28.84 0 0014.418 24.974l31.833 18.38a28.837 28.837 0 0028.839 0l31.833-18.38a28.837 28.837 0 0014.418-24.974v-84.713c0-7.126 8.062-11.323 13.861-7.181 32.58 23.277 53.809 61.408 53.809 104.493z"></path><path fill="url(#SVGID_8_)" d="M160.023 265.81a45.143 45.143 0 0022.571 39.095l49.833 28.773a45.144 45.144 0 0045.146 0l49.833-28.773a45.143 45.143 0 0022.571-39.095V168.7a129.086 129.086 0 00-20.446-18.192c-5.799-4.143-13.861.054-13.861 7.181v84.713a28.84 28.84 0 01-14.418 24.974l-31.833 18.38a28.837 28.837 0 01-28.839 0l-31.833-18.38a28.837 28.837 0 01-14.418-24.974v-84.71c0-7.164-8.102-11.303-13.928-7.135a129.056 129.056 0 00-20.379 18.142v97.111z"></path></svg>